<?xml version="1.0" encoding="UTF-8"?>
<!DOCTYPE svg PUBLIC "-//W3C//DTD SVG 1.1//EN" "http://www.w3.org/Graphics/SVG/1.1/DTD/svg11.dtd">
<svg xmlns="http://www.w3.org/2000/svg" version="1.1" width="512px" height="512px" style="shape-rendering:geometricPrecision; text-rendering:geometricPrecision; image-rendering:optimizeQuality; fill-rule:evenodd; clip-rule:evenodd" xmlns:xlink="http://www.w3.org/1999/xlink">
<g><path style="opacity:1" fill="#209cee" d="M 40.5,-0.5 C 183.833,-0.5 327.167,-0.5 470.5,-0.5C 491.833,5.5 505.5,19.1667 511.5,40.5C 511.5,183.833 511.5,327.167 511.5,470.5C 505.5,491.833 491.833,505.5 470.5,511.5C 327.167,511.5 183.833,511.5 40.5,511.5C 19.1667,505.5 5.5,491.833 -0.5,470.5C -0.5,327.167 -0.5,183.833 -0.5,40.5C 5.5,19.1667 19.1667,5.5 40.5,-0.5 Z"/></g>
<g><path style="opacity:1" fill="#96d0f6" d="M 74.5,121.5 C 121.664,120.501 168.997,120.168 216.5,120.5C 216.5,129.167 216.5,137.833 216.5,146.5C 184.167,146.5 151.833,146.5 119.5,146.5C 151.329,145.502 183.329,145.168 215.5,145.5C 215.5,137.5 215.5,129.5 215.5,121.5C 168.5,121.5 121.5,121.5 74.5,121.5 Z"/></g>
<g><path style="opacity:1" fill="#fdfefe" d="M 74.5,121.5 C 121.5,121.5 168.5,121.5 215.5,121.5C 215.5,129.5 215.5,137.5 215.5,145.5C 183.329,145.168 151.329,145.502 119.5,146.5C 119.5,178.167 119.5,209.833 119.5,241.5C 147.833,241.5 176.167,241.5 204.5,241.5C 204.5,249.5 204.5,257.5 204.5,265.5C 175.995,265.169 147.662,265.502 119.5,266.5C 119.5,307.833 119.5,349.167 119.5,390.5C 104.5,390.5 89.5,390.5 74.5,390.5C 74.5,300.833 74.5,211.167 74.5,121.5 Z"/></g>
<g><path style="opacity:1" fill="#fefefe" d="M 437.5,121.5 C 437.666,130.839 437.5,140.173 437,149.5C 399.243,229.349 361.743,309.349 324.5,389.5C 310.833,390.833 297.167,390.833 283.5,389.5C 322.769,311.962 361.769,234.295 400.5,156.5C 401.043,156.44 401.376,156.107 401.5,155.5C 352.838,154.5 304.171,154.167 255.5,154.5C 255.5,143.5 255.5,132.5 255.5,121.5C 316.167,121.5 376.833,121.5 437.5,121.5 Z"/></g>
<g><path style="opacity:1" fill="#c6e5fa" d="M 437.5,121.5 C 376.833,121.5 316.167,121.5 255.5,121.5C 255.5,132.5 255.5,143.5 255.5,154.5C 304.171,154.167 352.838,154.5 401.5,155.5C 401.376,156.107 401.043,156.44 400.5,156.5C 352.003,155.501 303.336,155.168 254.5,155.5C 254.5,143.833 254.5,132.167 254.5,120.5C 315.669,120.168 376.669,120.501 437.5,121.5 Z"/></g>
<g><path style="opacity:1" fill="#bce0fa" d="M 204.5,241.5 C 205.493,249.65 205.826,257.983 205.5,266.5C 176.833,266.5 148.167,266.5 119.5,266.5C 147.662,265.502 175.995,265.169 204.5,265.5C 204.5,257.5 204.5,249.5 204.5,241.5 Z"/></g>
</svg>
